<?xml version="1.0" encoding="UTF-8"?>
<svg width="800px" height="500px" viewBox="0 0 800 500" version="1.1" xmlns="http://www.w3.org/2000/svg" xmlns:xlink="http://www.w3.org/1999/xlink">
    <title>Relax SPA Hero</title>
    <defs>
        <linearGradient x1="50%" y1="0%" x2="50%" y2="100%" id="linearGradient-1">
            <stop stop-color="#E9F1FB" offset="0%"></stop>
            <stop stop-color="#F8F9FA" offset="100%"></stop>
        </linearGradient>
        <linearGradient x1="50%" y1="0%" x2="50%" y2="100%" id="linearGradient-2">
            <stop stop-color="#6495ED" offset="0%"></stop>
            <stop stop-color="#5a86d6" offset="100%"></stop>
        </linearGradient>
    </defs>
    <g stroke="none" stroke-width="1" fill="none" fill-rule="evenodd">
        <rect fill="url(#linearGradient-1)" x="0" y="0" width="800" height="500" rx="20"></rect>
        
        <!-- Decorative elements -->
        <circle fill="#E0EFFE" cx="200" cy="100" r="80"></circle>
        <circle fill="#F5F9FF" cx="650" cy="400" r="120"></circle>
        
        <!-- Spa stones -->
        <g transform="translate(300, 200)">
            <ellipse fill="#515151" cx="100" cy="150" rx="60" ry="30" opacity="0.7"></ellipse>
            <ellipse fill="#6E6E6E" cx="200" cy="150" rx="70" ry="35" opacity="0.7"></ellipse>
            <ellipse fill="#333333" cx="150" cy="140" rx="80" ry="40" opacity="0.7"></ellipse>
            
            <!-- Stones -->
            <ellipse fill="#444444" cx="150" cy="120" rx="50" ry="30"></ellipse>
            <ellipse fill="#555555" cx="180" cy="100" rx="45" ry="25"></ellipse>
            <ellipse fill="#666666" cx="130" cy="80" rx="40" ry="20"></ellipse>
        </g>
        
        <!-- Lotus flower -->
        <g transform="translate(150, 280)">
            <path d="M0,0 C10,-40 40,-60 60,-50 C80,-40 30,-10 0,0 Z" fill="#FFC0CB" opacity="0.8"></path>
            <path d="M0,0 C-10,-40 -40,-60 -60,-50 C-80,-40 -30,-10 0,0 Z" fill="#FFC0CB" opacity="0.8"></path>
            <path d="M0,0 C30,-30 60,-30 70,-10 C80,10 20,10 0,0 Z" fill="#FFB6C1" opacity="0.8"></path>
            <path d="M0,0 C-30,-30 -60,-30 -70,-10 C-80,10 -20,10 0,0 Z" fill="#FFB6C1" opacity="0.8"></path>
            <path d="M0,0 C40,-10 60,10 50,30 C40,50 10,20 0,0 Z" fill="#FFC0CB" opacity="0.8"></path>
            <path d="M0,0 C-40,-10 -60,10 -50,30 C-40,50 -10,20 0,0 Z" fill="#FFC0CB" opacity="0.8"></path>
            <circle fill="url(#linearGradient-2)" cx="0" cy="0" r="15"></circle>
        </g>
        
        <!-- Water drops -->
        <g transform="translate(500, 150)">
            <path d="M0,0 C0,-30 30,-30 30,0 C30,30 0,30 0,0 Z" fill="#6495ED" opacity="0.6"></path>
            <path d="M50,20 C50,-10 80,-10 80,20 C80,50 50,50 50,20 Z" fill="#6495ED" opacity="0.5"></path>
            <path d="M20,50 C20,20 50,20 50,50 C50,80 20,80 20,50 Z" fill="#6495ED" opacity="0.4"></path>
        </g>
    </g>
</svg>
